<svg width="129" height="25" viewBox="0 0 129 25" fill="none" xmlns="http://www.w3.org/2000/svg">
<path d="M7.296 24V5.824H0.128V1.6H19.648V5.824H12.48V24H7.296ZM21.7103 24V6.784H26.4783V11.648L25.8063 10.24C26.3183 9.024 27.1396 8.10667 28.2703 7.488C29.4009 6.848 30.7769 6.528 32.3983 6.528V11.136C32.1849 11.1147 31.9929 11.104 31.8223 11.104C31.6516 11.0827 31.4703 11.072 31.2783 11.072C29.9129 11.072 28.8036 11.4667 27.9503 12.256C27.1183 13.024 26.7023 14.2293 26.7023 15.872V24H21.7103ZM44.8015 24V20.64L44.4815 19.904V13.888C44.4815 12.8213 44.1508 11.9893 43.4895 11.392C42.8495 10.7947 41.8575 10.496 40.5135 10.496C39.5962 10.496 38.6895 10.6453 37.7935 10.944C36.9188 11.2213 36.1722 11.6053 35.5535 12.096L33.7615 8.608C34.7002 7.94667 35.8308 7.43467 37.1535 7.072C38.4762 6.70933 39.8202 6.528 41.1855 6.528C43.8095 6.528 45.8468 7.14667 47.2975 8.384C48.7482 9.62133 49.4735 11.552 49.4735 14.176V24H44.8015ZM39.5535 24.256C38.2095 24.256 37.0575 24.032 36.0975 23.584C35.1375 23.1147 34.4015 22.4853 33.8895 21.696C33.3775 20.9067 33.1215 20.0213 33.1215 19.04C33.1215 18.016 33.3668 17.12 33.8575 16.352C34.3695 15.584 35.1695 14.9867 36.2575 14.56C37.3455 14.112 38.7642 13.888 40.5135 13.888H45.0895V16.8H41.0575C39.8842 16.8 39.0735 16.992 38.6255 17.376C38.1988 17.76 37.9855 18.24 37.9855 18.816C37.9855 19.456 38.2308 19.968 38.7215 20.352C39.2335 20.7147 39.9268 20.896 40.8015 20.896C41.6335 20.896 42.3802 20.704 43.0415 20.32C43.7028 19.9147 44.1828 19.328 44.4815 18.56L45.2495 20.864C44.8868 21.9733 44.2255 22.816 43.2655 23.392C42.3055 23.968 41.0682 24.256 39.5535 24.256ZM58.351 24L51.119 6.784H56.271L62.287 21.6H59.727L65.967 6.784H70.767L63.503 24H58.351ZM80.8793 24.256C78.9166 24.256 77.1886 23.872 75.6953 23.104C74.2233 22.336 73.0819 21.2907 72.2713 19.968C71.4606 18.624 71.0553 17.0987 71.0553 15.392C71.0553 13.664 71.4499 12.1387 72.2393 10.816C73.0499 9.472 74.1486 8.42667 75.5353 7.68C76.9219 6.912 78.4899 6.528 80.2393 6.528C81.9246 6.528 83.4393 6.89067 84.7833 7.616C86.1486 8.32 87.2259 9.344 88.0153 10.688C88.8046 12.0107 89.1993 13.6 89.1993 15.456C89.1993 15.648 89.1886 15.872 89.1673 16.128C89.1459 16.3627 89.1246 16.5867 89.1033 16.8H75.1193V13.888H86.4792L84.5593 14.752C84.5593 13.856 84.3779 13.0773 84.0153 12.416C83.6526 11.7547 83.1513 11.2427 82.5113 10.88C81.8713 10.496 81.1246 10.304 80.2713 10.304C79.4179 10.304 78.6606 10.496 77.9993 10.88C77.3593 11.2427 76.8579 11.7653 76.4953 12.448C76.1326 13.1093 75.9513 13.8987 75.9513 14.816V15.584C75.9513 16.5227 76.1539 17.3547 76.5593 18.08C76.9859 18.784 77.5726 19.328 78.3193 19.712C79.0873 20.0747 79.9833 20.256 81.0073 20.256C81.9246 20.256 82.7246 20.1173 83.4073 19.84C84.1113 19.5627 84.7513 19.1467 85.3273 18.592L87.9833 21.472C87.1939 22.368 86.2019 23.0613 85.0073 23.552C83.8126 24.0213 82.4366 24.256 80.8793 24.256ZM92.5228 24V0.255999H97.5148V24H92.5228Z" fill="black"/>
<path d="M104.036 24.256C103.182 24.256 102.446 23.968 101.828 23.392C101.23 22.7947 100.932 22.0373 100.932 21.12C100.932 20.2027 101.23 19.4667 101.828 18.912C102.446 18.336 103.182 18.048 104.036 18.048C104.91 18.048 105.646 18.336 106.244 18.912C106.841 19.4667 107.14 20.2027 107.14 21.12C107.14 22.0373 106.841 22.7947 106.244 23.392C105.646 23.968 104.91 24.256 104.036 24.256ZM118.547 24.384C116.755 24.384 115.038 24.1493 113.395 23.68C111.753 23.1893 110.43 22.56 109.427 21.792L111.187 17.888C112.147 18.5707 113.278 19.136 114.579 19.584C115.902 20.0107 117.235 20.224 118.579 20.224C119.603 20.224 120.425 20.128 121.043 19.936C121.683 19.7227 122.153 19.4347 122.451 19.072C122.75 18.7093 122.899 18.2933 122.899 17.824C122.899 17.2267 122.665 16.7573 122.195 16.416C121.726 16.0533 121.107 15.7653 120.339 15.552C119.571 15.3173 118.718 15.104 117.779 14.912C116.862 14.6987 115.934 14.4427 114.995 14.144C114.078 13.8453 113.235 13.4613 112.467 12.992C111.699 12.5227 111.07 11.904 110.579 11.136C110.11 10.368 109.875 9.38667 109.875 8.192C109.875 6.912 110.217 5.74933 110.899 4.704C111.603 3.63733 112.649 2.79467 114.035 2.176C115.443 1.536 117.203 1.216 119.315 1.216C120.723 1.216 122.11 1.38667 123.475 1.728C124.841 2.048 126.046 2.53867 127.091 3.2L125.491 7.136C124.446 6.53867 123.401 6.10133 122.355 5.824C121.31 5.52533 120.286 5.376 119.283 5.376C118.281 5.376 117.459 5.49333 116.819 5.728C116.179 5.96267 115.721 6.272 115.443 6.656C115.166 7.01867 115.027 7.44533 115.027 7.936C115.027 8.512 115.262 8.98133 115.731 9.344C116.201 9.68533 116.819 9.96267 117.587 10.176C118.355 10.3893 119.198 10.6027 120.115 10.816C121.054 11.0293 121.982 11.2747 122.899 11.552C123.838 11.8293 124.691 12.2027 125.459 12.672C126.227 13.1413 126.846 13.76 127.315 14.528C127.806 15.296 128.051 16.2667 128.051 17.44C128.051 18.6987 127.699 19.8507 126.995 20.896C126.291 21.9413 125.235 22.784 123.827 23.424C122.441 24.064 120.681 24.384 118.547 24.384Z" fill="#1B17E4"/>
</svg>
